<mxfile host="app.diagrams.net" modified="2024-06-02T23:06:06.754Z" agent="Mozilla/5.0 (Windows NT 10.0; Win64; x64) AppleWebKit/537.36 (KHTML, like Gecko) Chrome/125.0.0.0 Safari/537.36" etag="lf0AacoaME8YdtIJ76b3" version="24.4.13" type="github">
  <diagram id="R2lEEEUBdFMjLlhIrx00" name="Page-1">
    <mxGraphModel dx="2163" dy="1753" grid="1" gridSize="10" guides="1" tooltips="1" connect="1" arrows="1" fold="1" page="1" pageScale="1" pageWidth="850" pageHeight="1100" math="0" shadow="0" extFonts="Permanent Marker^https://fonts.googleapis.com/css?family=Permanent+Marker">
      <root>
        <mxCell id="0" />
        <mxCell id="1" parent="0" />
        <mxCell id="C-vyLk0tnHw3VtMMgP7b-1" value="" style="edgeStyle=entityRelationEdgeStyle;endArrow=ERzeroToMany;startArrow=ERone;endFill=1;startFill=0;" parent="1" edge="1">
          <mxGeometry width="100" height="100" relative="1" as="geometry">
            <mxPoint x="-220" y="420" as="sourcePoint" />
            <mxPoint x="-50" y="450" as="targetPoint" />
          </mxGeometry>
        </mxCell>
        <mxCell id="C-vyLk0tnHw3VtMMgP7b-12" value="" style="edgeStyle=entityRelationEdgeStyle;endArrow=ERzeroToMany;startArrow=ERone;endFill=1;startFill=0;" parent="1" edge="1">
          <mxGeometry width="100" height="100" relative="1" as="geometry">
            <mxPoint x="-300" y="180" as="sourcePoint" />
            <mxPoint x="-300" y="370" as="targetPoint" />
          </mxGeometry>
        </mxCell>
        <mxCell id="C-vyLk0tnHw3VtMMgP7b-2" value="property" style="shape=table;startSize=30;container=1;collapsible=1;childLayout=tableLayout;fixedRows=1;rowLines=0;fontStyle=1;align=center;resizeLast=1;" parent="1" vertex="1">
          <mxGeometry x="680" y="352" width="250" height="396" as="geometry" />
        </mxCell>
        <mxCell id="C-vyLk0tnHw3VtMMgP7b-3" value="" style="shape=partialRectangle;collapsible=0;dropTarget=0;pointerEvents=0;fillColor=none;points=[[0,0.5],[1,0.5]];portConstraint=eastwest;top=0;left=0;right=0;bottom=1;" parent="C-vyLk0tnHw3VtMMgP7b-2" vertex="1">
          <mxGeometry y="30" width="250" height="30" as="geometry" />
        </mxCell>
        <mxCell id="C-vyLk0tnHw3VtMMgP7b-4" value="PK" style="shape=partialRectangle;overflow=hidden;connectable=0;fillColor=none;top=0;left=0;bottom=0;right=0;fontStyle=1;" parent="C-vyLk0tnHw3VtMMgP7b-3" vertex="1">
          <mxGeometry width="30" height="30" as="geometry">
            <mxRectangle width="30" height="30" as="alternateBounds" />
          </mxGeometry>
        </mxCell>
        <mxCell id="C-vyLk0tnHw3VtMMgP7b-5" value="property_id" style="shape=partialRectangle;overflow=hidden;connectable=0;fillColor=none;top=0;left=0;bottom=0;right=0;align=left;spacingLeft=6;fontStyle=5;" parent="C-vyLk0tnHw3VtMMgP7b-3" vertex="1">
          <mxGeometry x="30" width="220" height="30" as="geometry">
            <mxRectangle width="220" height="30" as="alternateBounds" />
          </mxGeometry>
        </mxCell>
        <mxCell id="C-vyLk0tnHw3VtMMgP7b-6" value="" style="shape=partialRectangle;collapsible=0;dropTarget=0;pointerEvents=0;fillColor=none;points=[[0,0.5],[1,0.5]];portConstraint=eastwest;top=0;left=0;right=0;bottom=0;" parent="C-vyLk0tnHw3VtMMgP7b-2" vertex="1">
          <mxGeometry y="60" width="250" height="336" as="geometry" />
        </mxCell>
        <mxCell id="C-vyLk0tnHw3VtMMgP7b-7" value="FK1&#xa;&#xa;FK2&#xa;&#xa;&#xa;" style="shape=partialRectangle;overflow=hidden;connectable=0;fillColor=none;top=0;left=0;bottom=0;right=0;verticalAlign=top;" parent="C-vyLk0tnHw3VtMMgP7b-6" vertex="1">
          <mxGeometry width="30" height="336" as="geometry">
            <mxRectangle width="30" height="336" as="alternateBounds" />
          </mxGeometry>
        </mxCell>
        <mxCell id="C-vyLk0tnHw3VtMMgP7b-8" value="address&#xa;&#xa;reservation&#xa;&#xa;title&#xa;&#xa;description&#xa;&#xa;costpernight&#xa;&#xa;parking_spaces&#xa;&#xa;numberofbathrooms&#xa;&#xa;numberofbedrooms&#xa;&#xa;tumbnail_photo&#xa;&#xa;cover_photo&#xa;&#xa;active&#xa;&#xa;owner&#xa;&#xa;&#xa;" style="shape=partialRectangle;overflow=hidden;connectable=0;fillColor=none;top=0;left=0;bottom=0;right=0;align=left;spacingLeft=6;verticalAlign=top;" parent="C-vyLk0tnHw3VtMMgP7b-6" vertex="1">
          <mxGeometry x="30" width="220" height="336" as="geometry">
            <mxRectangle width="220" height="336" as="alternateBounds" />
          </mxGeometry>
        </mxCell>
        <mxCell id="C-vyLk0tnHw3VtMMgP7b-13" value="Shipments" style="shape=table;startSize=30;container=1;collapsible=1;childLayout=tableLayout;fixedRows=1;rowLines=0;fontStyle=1;align=center;resizeLast=1;" parent="1" vertex="1">
          <mxGeometry x="30" y="1240" width="250" height="130" as="geometry" />
        </mxCell>
        <mxCell id="C-vyLk0tnHw3VtMMgP7b-14" value="" style="shape=partialRectangle;collapsible=0;dropTarget=0;pointerEvents=0;fillColor=none;points=[[0,0.5],[1,0.5]];portConstraint=eastwest;top=0;left=0;right=0;bottom=1;" parent="C-vyLk0tnHw3VtMMgP7b-13" vertex="1">
          <mxGeometry y="30" width="250" height="30" as="geometry" />
        </mxCell>
        <mxCell id="C-vyLk0tnHw3VtMMgP7b-15" value="PK" style="shape=partialRectangle;overflow=hidden;connectable=0;fillColor=none;top=0;left=0;bottom=0;right=0;fontStyle=1;" parent="C-vyLk0tnHw3VtMMgP7b-14" vertex="1">
          <mxGeometry width="30" height="30" as="geometry">
            <mxRectangle width="30" height="30" as="alternateBounds" />
          </mxGeometry>
        </mxCell>
        <mxCell id="C-vyLk0tnHw3VtMMgP7b-16" value="shipment_idÂ int NOT NULL " style="shape=partialRectangle;overflow=hidden;connectable=0;fillColor=none;top=0;left=0;bottom=0;right=0;align=left;spacingLeft=6;fontStyle=5;" parent="C-vyLk0tnHw3VtMMgP7b-14" vertex="1">
          <mxGeometry x="30" width="220" height="30" as="geometry">
            <mxRectangle width="220" height="30" as="alternateBounds" />
          </mxGeometry>
        </mxCell>
        <mxCell id="C-vyLk0tnHw3VtMMgP7b-17" value="" style="shape=partialRectangle;collapsible=0;dropTarget=0;pointerEvents=0;fillColor=none;points=[[0,0.5],[1,0.5]];portConstraint=eastwest;top=0;left=0;right=0;bottom=0;" parent="C-vyLk0tnHw3VtMMgP7b-13" vertex="1">
          <mxGeometry y="60" width="250" height="30" as="geometry" />
        </mxCell>
        <mxCell id="C-vyLk0tnHw3VtMMgP7b-18" value="FK1" style="shape=partialRectangle;overflow=hidden;connectable=0;fillColor=none;top=0;left=0;bottom=0;right=0;" parent="C-vyLk0tnHw3VtMMgP7b-17" vertex="1">
          <mxGeometry width="30" height="30" as="geometry">
            <mxRectangle width="30" height="30" as="alternateBounds" />
          </mxGeometry>
        </mxCell>
        <mxCell id="C-vyLk0tnHw3VtMMgP7b-19" value="order_id int NOT NULL" style="shape=partialRectangle;overflow=hidden;connectable=0;fillColor=none;top=0;left=0;bottom=0;right=0;align=left;spacingLeft=6;" parent="C-vyLk0tnHw3VtMMgP7b-17" vertex="1">
          <mxGeometry x="30" width="220" height="30" as="geometry">
            <mxRectangle width="220" height="30" as="alternateBounds" />
          </mxGeometry>
        </mxCell>
        <mxCell id="C-vyLk0tnHw3VtMMgP7b-20" value="" style="shape=partialRectangle;collapsible=0;dropTarget=0;pointerEvents=0;fillColor=none;points=[[0,0.5],[1,0.5]];portConstraint=eastwest;top=0;left=0;right=0;bottom=0;" parent="C-vyLk0tnHw3VtMMgP7b-13" vertex="1">
          <mxGeometry y="90" width="250" height="30" as="geometry" />
        </mxCell>
        <mxCell id="C-vyLk0tnHw3VtMMgP7b-21" value="" style="shape=partialRectangle;overflow=hidden;connectable=0;fillColor=none;top=0;left=0;bottom=0;right=0;" parent="C-vyLk0tnHw3VtMMgP7b-20" vertex="1">
          <mxGeometry width="30" height="30" as="geometry">
            <mxRectangle width="30" height="30" as="alternateBounds" />
          </mxGeometry>
        </mxCell>
        <mxCell id="C-vyLk0tnHw3VtMMgP7b-22" value="shipment_date date NOT NULL" style="shape=partialRectangle;overflow=hidden;connectable=0;fillColor=none;top=0;left=0;bottom=0;right=0;align=left;spacingLeft=6;" parent="C-vyLk0tnHw3VtMMgP7b-20" vertex="1">
          <mxGeometry x="30" width="220" height="30" as="geometry">
            <mxRectangle width="220" height="30" as="alternateBounds" />
          </mxGeometry>
        </mxCell>
        <mxCell id="C-vyLk0tnHw3VtMMgP7b-23" value="user" style="shape=table;startSize=30;container=1;collapsible=1;childLayout=tableLayout;fixedRows=1;rowLines=0;fontStyle=1;align=center;resizeLast=1;" parent="1" vertex="1">
          <mxGeometry x="-125" y="634.5" width="250" height="270" as="geometry" />
        </mxCell>
        <mxCell id="C-vyLk0tnHw3VtMMgP7b-24" value="" style="shape=partialRectangle;collapsible=0;dropTarget=0;pointerEvents=0;fillColor=none;points=[[0,0.5],[1,0.5]];portConstraint=eastwest;top=0;left=0;right=0;bottom=1;" parent="C-vyLk0tnHw3VtMMgP7b-23" vertex="1">
          <mxGeometry y="30" width="250" height="30" as="geometry" />
        </mxCell>
        <mxCell id="C-vyLk0tnHw3VtMMgP7b-25" value="PK" style="shape=partialRectangle;overflow=hidden;connectable=0;fillColor=none;top=0;left=0;bottom=0;right=0;fontStyle=1;" parent="C-vyLk0tnHw3VtMMgP7b-24" vertex="1">
          <mxGeometry width="30" height="30" as="geometry">
            <mxRectangle width="30" height="30" as="alternateBounds" />
          </mxGeometry>
        </mxCell>
        <mxCell id="C-vyLk0tnHw3VtMMgP7b-26" value="user_id" style="shape=partialRectangle;overflow=hidden;connectable=0;fillColor=none;top=0;left=0;bottom=0;right=0;align=left;spacingLeft=6;fontStyle=5;" parent="C-vyLk0tnHw3VtMMgP7b-24" vertex="1">
          <mxGeometry x="30" width="220" height="30" as="geometry">
            <mxRectangle width="220" height="30" as="alternateBounds" />
          </mxGeometry>
        </mxCell>
        <mxCell id="C-vyLk0tnHw3VtMMgP7b-27" value="" style="shape=partialRectangle;collapsible=0;dropTarget=0;pointerEvents=0;fillColor=none;points=[[0,0.5],[1,0.5]];portConstraint=eastwest;top=0;left=0;right=0;bottom=0;" parent="C-vyLk0tnHw3VtMMgP7b-23" vertex="1">
          <mxGeometry y="60" width="250" height="210" as="geometry" />
        </mxCell>
        <mxCell id="C-vyLk0tnHw3VtMMgP7b-28" value="" style="shape=partialRectangle;overflow=hidden;connectable=0;fillColor=none;top=0;left=0;bottom=0;right=0;" parent="C-vyLk0tnHw3VtMMgP7b-27" vertex="1">
          <mxGeometry width="30" height="210" as="geometry">
            <mxRectangle width="30" height="210" as="alternateBounds" />
          </mxGeometry>
        </mxCell>
        <mxCell id="C-vyLk0tnHw3VtMMgP7b-29" value="name VARCHAR(50)&#xa;&#xa;email VARCHAR(255)&#xa;&#xa;password VARCHAR(32)&#xa;&#xa;&#xa;&#xa;&#xa;" style="shape=partialRectangle;overflow=hidden;connectable=0;fillColor=none;top=0;left=0;bottom=0;right=0;align=left;spacingLeft=6;verticalAlign=top;" parent="C-vyLk0tnHw3VtMMgP7b-27" vertex="1">
          <mxGeometry x="30" width="220" height="210" as="geometry">
            <mxRectangle width="220" height="210" as="alternateBounds" />
          </mxGeometry>
        </mxCell>
        <mxCell id="AUTQM9JpPe5jp6_eRnbs-12" value="address" style="shape=table;startSize=30;container=1;collapsible=1;childLayout=tableLayout;fixedRows=1;rowLines=0;fontStyle=1;align=center;resizeLast=1;" parent="1" vertex="1">
          <mxGeometry x="250" y="430" width="250" height="227" as="geometry" />
        </mxCell>
        <mxCell id="AUTQM9JpPe5jp6_eRnbs-13" value="" style="shape=partialRectangle;collapsible=0;dropTarget=0;pointerEvents=0;fillColor=none;points=[[0,0.5],[1,0.5]];portConstraint=eastwest;top=0;left=0;right=0;bottom=1;" parent="AUTQM9JpPe5jp6_eRnbs-12" vertex="1">
          <mxGeometry y="30" width="250" height="32" as="geometry" />
        </mxCell>
        <mxCell id="AUTQM9JpPe5jp6_eRnbs-14" value="PK" style="shape=partialRectangle;overflow=hidden;connectable=0;fillColor=none;top=0;left=0;bottom=0;right=0;fontStyle=1;" parent="AUTQM9JpPe5jp6_eRnbs-13" vertex="1">
          <mxGeometry width="30" height="32" as="geometry">
            <mxRectangle width="30" height="32" as="alternateBounds" />
          </mxGeometry>
        </mxCell>
        <mxCell id="AUTQM9JpPe5jp6_eRnbs-15" value="address_id" style="shape=partialRectangle;overflow=hidden;connectable=0;fillColor=none;top=0;left=0;bottom=0;right=0;align=left;spacingLeft=6;fontStyle=5;" parent="AUTQM9JpPe5jp6_eRnbs-13" vertex="1">
          <mxGeometry x="30" width="220" height="32" as="geometry">
            <mxRectangle width="220" height="32" as="alternateBounds" />
          </mxGeometry>
        </mxCell>
        <mxCell id="AUTQM9JpPe5jp6_eRnbs-16" value="" style="shape=partialRectangle;collapsible=0;dropTarget=0;pointerEvents=0;fillColor=none;points=[[0,0.5],[1,0.5]];portConstraint=eastwest;top=0;left=0;right=0;bottom=0;" parent="AUTQM9JpPe5jp6_eRnbs-12" vertex="1">
          <mxGeometry y="62" width="250" height="165" as="geometry" />
        </mxCell>
        <mxCell id="AUTQM9JpPe5jp6_eRnbs-17" value="" style="shape=partialRectangle;overflow=hidden;connectable=0;fillColor=none;top=0;left=0;bottom=0;right=0;verticalAlign=top;" parent="AUTQM9JpPe5jp6_eRnbs-16" vertex="1">
          <mxGeometry width="30" height="165" as="geometry">
            <mxRectangle width="30" height="165" as="alternateBounds" />
          </mxGeometry>
        </mxCell>
        <mxCell id="AUTQM9JpPe5jp6_eRnbs-18" value="country&#xa;&#xa;street&#xa;&#xa;city&#xa;&#xa;province&#xa;&#xa;post_code" style="shape=partialRectangle;overflow=hidden;connectable=0;fillColor=none;top=0;left=0;bottom=0;right=0;align=left;spacingLeft=6;verticalAlign=top;" parent="AUTQM9JpPe5jp6_eRnbs-16" vertex="1">
          <mxGeometry x="30" width="220" height="165" as="geometry">
            <mxRectangle width="220" height="165" as="alternateBounds" />
          </mxGeometry>
        </mxCell>
        <mxCell id="AUTQM9JpPe5jp6_eRnbs-19" value="reservation" style="shape=table;startSize=30;container=1;collapsible=1;childLayout=tableLayout;fixedRows=1;rowLines=0;fontStyle=1;align=center;resizeLast=1;" parent="1" vertex="1">
          <mxGeometry x="250" y="679.5" width="250" height="225" as="geometry" />
        </mxCell>
        <mxCell id="AUTQM9JpPe5jp6_eRnbs-20" value="" style="shape=partialRectangle;collapsible=0;dropTarget=0;pointerEvents=0;fillColor=none;points=[[0,0.5],[1,0.5]];portConstraint=eastwest;top=0;left=0;right=0;bottom=1;" parent="AUTQM9JpPe5jp6_eRnbs-19" vertex="1">
          <mxGeometry y="30" width="250" height="30" as="geometry" />
        </mxCell>
        <mxCell id="AUTQM9JpPe5jp6_eRnbs-21" value="PK" style="shape=partialRectangle;overflow=hidden;connectable=0;fillColor=none;top=0;left=0;bottom=0;right=0;fontStyle=1;" parent="AUTQM9JpPe5jp6_eRnbs-20" vertex="1">
          <mxGeometry width="30" height="30" as="geometry">
            <mxRectangle width="30" height="30" as="alternateBounds" />
          </mxGeometry>
        </mxCell>
        <mxCell id="AUTQM9JpPe5jp6_eRnbs-22" value="reservation_id" style="shape=partialRectangle;overflow=hidden;connectable=0;fillColor=none;top=0;left=0;bottom=0;right=0;align=left;spacingLeft=6;fontStyle=5;" parent="AUTQM9JpPe5jp6_eRnbs-20" vertex="1">
          <mxGeometry x="30" width="220" height="30" as="geometry">
            <mxRectangle width="220" height="30" as="alternateBounds" />
          </mxGeometry>
        </mxCell>
        <mxCell id="AUTQM9JpPe5jp6_eRnbs-23" value="" style="shape=partialRectangle;collapsible=0;dropTarget=0;pointerEvents=0;fillColor=none;points=[[0,0.5],[1,0.5]];portConstraint=eastwest;top=0;left=0;right=0;bottom=0;" parent="AUTQM9JpPe5jp6_eRnbs-19" vertex="1">
          <mxGeometry y="60" width="250" height="165" as="geometry" />
        </mxCell>
        <mxCell id="AUTQM9JpPe5jp6_eRnbs-24" value="&#xa;&#xa;&#xa;&#xa;FK1&#xa;&#xa;FK2" style="shape=partialRectangle;overflow=hidden;connectable=0;fillColor=none;top=0;left=0;bottom=0;right=0;verticalAlign=top;" parent="AUTQM9JpPe5jp6_eRnbs-23" vertex="1">
          <mxGeometry width="30" height="165" as="geometry">
            <mxRectangle width="30" height="165" as="alternateBounds" />
          </mxGeometry>
        </mxCell>
        <mxCell id="AUTQM9JpPe5jp6_eRnbs-25" value="start_date&#xa;&#xa;end_date&#xa;&#xa;user&#xa;&#xa;property_review" style="shape=partialRectangle;overflow=hidden;connectable=0;fillColor=none;top=0;left=0;bottom=0;right=0;align=left;spacingLeft=6;verticalAlign=top;" parent="AUTQM9JpPe5jp6_eRnbs-23" vertex="1">
          <mxGeometry x="30" width="220" height="165" as="geometry">
            <mxRectangle width="220" height="165" as="alternateBounds" />
          </mxGeometry>
        </mxCell>
        <mxCell id="AUTQM9JpPe5jp6_eRnbs-26" value="property_review" style="shape=table;startSize=30;container=1;collapsible=1;childLayout=tableLayout;fixedRows=1;rowLines=0;fontStyle=1;align=center;resizeLast=1;" parent="1" vertex="1">
          <mxGeometry x="-125" y="950" width="250" height="225" as="geometry" />
        </mxCell>
        <mxCell id="AUTQM9JpPe5jp6_eRnbs-27" value="" style="shape=partialRectangle;collapsible=0;dropTarget=0;pointerEvents=0;fillColor=none;points=[[0,0.5],[1,0.5]];portConstraint=eastwest;top=0;left=0;right=0;bottom=1;" parent="AUTQM9JpPe5jp6_eRnbs-26" vertex="1">
          <mxGeometry y="30" width="250" height="30" as="geometry" />
        </mxCell>
        <mxCell id="AUTQM9JpPe5jp6_eRnbs-28" value="PK" style="shape=partialRectangle;overflow=hidden;connectable=0;fillColor=none;top=0;left=0;bottom=0;right=0;fontStyle=1;" parent="AUTQM9JpPe5jp6_eRnbs-27" vertex="1">
          <mxGeometry width="30" height="30" as="geometry">
            <mxRectangle width="30" height="30" as="alternateBounds" />
          </mxGeometry>
        </mxCell>
        <mxCell id="AUTQM9JpPe5jp6_eRnbs-29" value="property_review_id" style="shape=partialRectangle;overflow=hidden;connectable=0;fillColor=none;top=0;left=0;bottom=0;right=0;align=left;spacingLeft=6;fontStyle=5;" parent="AUTQM9JpPe5jp6_eRnbs-27" vertex="1">
          <mxGeometry x="30" width="220" height="30" as="geometry">
            <mxRectangle width="220" height="30" as="alternateBounds" />
          </mxGeometry>
        </mxCell>
        <mxCell id="AUTQM9JpPe5jp6_eRnbs-30" value="" style="shape=partialRectangle;collapsible=0;dropTarget=0;pointerEvents=0;fillColor=none;points=[[0,0.5],[1,0.5]];portConstraint=eastwest;top=0;left=0;right=0;bottom=0;" parent="AUTQM9JpPe5jp6_eRnbs-26" vertex="1">
          <mxGeometry y="60" width="250" height="165" as="geometry" />
        </mxCell>
        <mxCell id="AUTQM9JpPe5jp6_eRnbs-31" value="&#xa;&#xa;&#xa;&#xa;FK1&#xa;" style="shape=partialRectangle;overflow=hidden;connectable=0;fillColor=none;top=0;left=0;bottom=0;right=0;verticalAlign=top;" parent="AUTQM9JpPe5jp6_eRnbs-30" vertex="1">
          <mxGeometry width="30" height="165" as="geometry">
            <mxRectangle width="30" height="165" as="alternateBounds" />
          </mxGeometry>
        </mxCell>
        <mxCell id="AUTQM9JpPe5jp6_eRnbs-32" value="message&#xa;&#xa;rating&#xa;&#xa;user" style="shape=partialRectangle;overflow=hidden;connectable=0;fillColor=none;top=0;left=0;bottom=0;right=0;align=left;spacingLeft=6;verticalAlign=top;" parent="AUTQM9JpPe5jp6_eRnbs-30" vertex="1">
          <mxGeometry x="30" width="220" height="165" as="geometry">
            <mxRectangle width="220" height="165" as="alternateBounds" />
          </mxGeometry>
        </mxCell>
        <mxCell id="AUTQM9JpPe5jp6_eRnbs-34" value="" style="edgeStyle=entityRelationEdgeStyle;fontSize=12;html=1;endArrow=ERmandOne;startArrow=ERmandOne;rounded=0;" parent="1" edge="1">
          <mxGeometry width="100" height="100" relative="1" as="geometry">
            <mxPoint x="-140" y="180" as="sourcePoint" />
            <mxPoint x="-40" y="80" as="targetPoint" />
          </mxGeometry>
        </mxCell>
        <mxCell id="AUTQM9JpPe5jp6_eRnbs-36" value="1 to many" style="text;html=1;align=center;verticalAlign=middle;whiteSpace=wrap;rounded=0;" parent="1" vertex="1">
          <mxGeometry x="-120" y="250" width="60" height="30" as="geometry" />
        </mxCell>
        <mxCell id="AUTQM9JpPe5jp6_eRnbs-37" value="" style="edgeStyle=entityRelationEdgeStyle;fontSize=12;html=1;endArrow=ERmany;startArrow=ERmany;rounded=0;" parent="1" edge="1">
          <mxGeometry width="100" height="100" relative="1" as="geometry">
            <mxPoint x="-90" y="190" as="sourcePoint" />
            <mxPoint x="10" y="90" as="targetPoint" />
          </mxGeometry>
        </mxCell>
        <mxCell id="AUTQM9JpPe5jp6_eRnbs-38" value="" style="edgeStyle=entityRelationEdgeStyle;fontSize=12;html=1;endArrow=ERoneToMany;rounded=0;" parent="1" edge="1">
          <mxGeometry width="100" height="100" relative="1" as="geometry">
            <mxPoint x="-120" y="350" as="sourcePoint" />
            <mxPoint x="-10" y="245" as="targetPoint" />
          </mxGeometry>
        </mxCell>
        <mxCell id="AUTQM9JpPe5jp6_eRnbs-40" value="1 to 1" style="text;html=1;align=center;verticalAlign=middle;whiteSpace=wrap;rounded=0;" parent="1" vertex="1">
          <mxGeometry x="-150" y="90" width="60" height="30" as="geometry" />
        </mxCell>
        <mxCell id="AUTQM9JpPe5jp6_eRnbs-41" value="" style="edgeStyle=entityRelationEdgeStyle;fontSize=12;html=1;endArrow=ERmandOne;startArrow=ERmandOne;rounded=0;" parent="1" edge="1">
          <mxGeometry width="100" height="100" relative="1" as="geometry">
            <mxPoint x="-220" y="60" as="sourcePoint" />
            <mxPoint x="-120" y="-40" as="targetPoint" />
          </mxGeometry>
        </mxCell>
        <mxCell id="AUTQM9JpPe5jp6_eRnbs-43" value="" style="edgeStyle=entityRelationEdgeStyle;fontSize=12;html=1;endArrow=ERmany;startArrow=ERmany;rounded=0;" parent="1" edge="1">
          <mxGeometry width="100" height="100" relative="1" as="geometry">
            <mxPoint x="-280" y="150" as="sourcePoint" />
            <mxPoint x="-180" y="50" as="targetPoint" />
            <Array as="points">
              <mxPoint x="-220" y="80" />
            </Array>
          </mxGeometry>
        </mxCell>
        <mxCell id="AUTQM9JpPe5jp6_eRnbs-44" value="many to many" style="text;html=1;align=center;verticalAlign=middle;whiteSpace=wrap;rounded=0;" parent="1" vertex="1">
          <mxGeometry x="-30" y="130" width="60" height="30" as="geometry" />
        </mxCell>
        <mxCell id="1NKSCm4basxKmik5jUXT-1" value="" style="edgeStyle=entityRelationEdgeStyle;fontSize=12;html=1;endArrow=ERoneToMany;rounded=0;exitX=1;exitY=0.5;exitDx=0;exitDy=0;" edge="1" parent="1" source="AUTQM9JpPe5jp6_eRnbs-13">
          <mxGeometry width="100" height="100" relative="1" as="geometry">
            <mxPoint x="570" y="535" as="sourcePoint" />
            <mxPoint x="680" y="430" as="targetPoint" />
          </mxGeometry>
        </mxCell>
        <mxCell id="1NKSCm4basxKmik5jUXT-2" value="" style="edgeStyle=entityRelationEdgeStyle;fontSize=12;html=1;endArrow=ERoneToMany;rounded=0;entryX=0.004;entryY=0.137;entryDx=0;entryDy=0;entryPerimeter=0;" edge="1" parent="1">
          <mxGeometry width="100" height="100" relative="1" as="geometry">
            <mxPoint x="500" y="716.47" as="sourcePoint" />
            <mxPoint x="681" y="450.0019999999997" as="targetPoint" />
            <Array as="points">
              <mxPoint x="620" y="581.97" />
            </Array>
          </mxGeometry>
        </mxCell>
        <mxCell id="1NKSCm4basxKmik5jUXT-3" value="" style="edgeStyle=entityRelationEdgeStyle;fontSize=12;html=1;endArrow=ERoneToMany;rounded=0;exitX=1;exitY=0.5;exitDx=0;exitDy=0;" edge="1" parent="1" source="C-vyLk0tnHw3VtMMgP7b-24">
          <mxGeometry width="100" height="100" relative="1" as="geometry">
            <mxPoint x="140" y="915" as="sourcePoint" />
            <mxPoint x="250" y="810" as="targetPoint" />
          </mxGeometry>
        </mxCell>
        <mxCell id="1NKSCm4basxKmik5jUXT-5" value="" style="edgeStyle=entityRelationEdgeStyle;fontSize=12;html=1;endArrow=ERoneToMany;rounded=0;exitX=1;exitY=0.5;exitDx=0;exitDy=0;" edge="1" parent="1" source="AUTQM9JpPe5jp6_eRnbs-27">
          <mxGeometry width="100" height="100" relative="1" as="geometry">
            <mxPoint x="140" y="945" as="sourcePoint" />
            <mxPoint x="250" y="840" as="targetPoint" />
          </mxGeometry>
        </mxCell>
      </root>
    </mxGraphModel>
  </diagram>
</mxfile>
